<?xml version="1.0" encoding="utf-8"?>
<!-- Svg Vector Icons : http://www.onlinewebfonts.com/icon -->
<!DOCTYPE svg PUBLIC "-//W3C//DTD SVG 1.1//EN" "http://www.w3.org/Graphics/SVG/1.1/DTD/svg11.dtd">
<svg version="1.1" xmlns="http://www.w3.org/2000/svg" xmlns:xlink="http://www.w3.org/1999/xlink" x="0px" y="0px" viewBox="0 0 1000 1000" enable-background="new 0 0 1000 1000" xml:space="preserve">
<metadata> Svg Vector Icons : http://www.onlinewebfonts.com/icon </metadata>
<g><path d="M972.7,842.1H920V583c0-39.9-14.1-70.9-53.1-70.9H728.2c-39.7,0-53.2,31.7-53.2,70.9v259.1h-52.5V158.4c0-39.5-14.1-71.2-53.1-71.2H430.6c-39.6,0-53.1,31.9-53.1,71.2v683.8H325V440.3c0-39-14.1-70.4-53.1-70.4H133.1c-39.6,0-53.1,31.5-53.1,70.4v401.8H44.7c-18.9,0-34.7,15.8-34.7,35.3c0,18.9,15.5,35.3,34.7,35.3h910.5c18.9,0,34.8-15.8,34.8-35.3C989.9,858.5,991.9,842.1,972.7,842.1z M271.3,573v30.5H131.5v-23.2c16-21.9,34.6-40.2,55.9-53.7c29.3-20.7,42.6-35.3,41.3-45.1c0-14.6-9.3-23.2-25.3-23.2c-17.3,0-28,8.5-32,29.3l-38.6-7.3c8-35.4,33.3-52.5,75.9-52.5c38.6,1.2,59.9,18.3,62.6,48.8c2.7,21.9-10.7,41.5-41.3,57.3c-20,13.4-35.9,26.8-47.9,39H271.3z M535,324.4h-43.8V207.3c-6,9.2-18.7,21.7-43.8,29.3v-43.9c20.7-10.7,21.7-14.7,44.5-43.9h43V324.4z M795.6,749.4c-37.6,2.4-60.9-12-70-43.3l41.5-8.4c2.6,16.8,12.9,25.2,31.1,25.2c16.9,0,25.9-8.4,27.2-24c0-15.6-13-24.1-40.2-24.1h-16.8v-28.8H784c24.6,0,36.3-7.2,36.3-22.8c0-14.4-7.8-21.6-23.3-21.6c-15.6,1.2-24.6,9.6-28.5,25.2l-38.9-7.2c7.8-30,31.1-45.7,71.3-45.7c37.6,1.2,58.3,15.6,60.9,44.4c0,21.6-13,34.9-38.9,39.7v1.2c27.2,3.6,41.5,18,42.8,42.1C863,732.6,839.7,749.4,795.6,749.4z"/></g>
</svg>